<svg width="29" height="36" viewBox="0 0 29 36" fill="none" xmlns="http://www.w3.org/2000/svg">
<path d="M13.85 35.6C11.4167 35.6 9 35.2833 6.6 34.65C4.23333 33.9833 2.2 33.05 0.5 31.85L3.7 25.65C5.03333 26.6167 6.56667 27.3833 8.3 27.95C10.0667 28.5167 11.85 28.8 13.65 28.8C15.6833 28.8 17.2833 28.4 18.45 27.6C19.6167 26.8 20.2 25.6833 20.2 24.25C20.2 23.35 19.9667 22.55 19.5 21.85C19.0333 21.15 18.2 20.6167 17 20.25C15.8333 19.8833 14.1833 19.7 12.05 19.7H3.1L4.9 -2.38419e-06H26.25V6.5H7.8L12 2.8L10.75 16.85L6.55 13.15H13.95C17.4167 13.15 20.2 13.6333 22.3 14.6C24.4333 15.5333 25.9833 16.8167 26.95 18.45C27.9167 20.0833 28.4 21.9333 28.4 24C28.4 26.0667 27.8833 27.9833 26.85 29.75C25.8167 31.4833 24.2167 32.9 22.05 34C19.9167 35.0667 17.1833 35.6 13.85 35.6Z" fill="#559CAD"/>
</svg>
