<svg width="139" height="139" viewBox="0 0 139 139" fill="none" xmlns="http://www.w3.org/2000/svg">
<path fill-rule="evenodd" clip-rule="evenodd" d="M69.5 138C107.332 138 138 107.332 138 69.5C138 31.6685 107.332 1 69.5 1C31.6685 1 1 31.6685 1 69.5C1 107.332 31.6685 138 69.5 138Z" fill="#4F5165" stroke="#559CAD"/>
<path d="M106.287 55.959C105.293 56.9468 103.948 57.5012 102.547 57.5012C101.145 57.5012 99.8008 56.9468 98.8066 55.959L94.416 51.5664C93.4278 50.5728 92.8731 49.2285 92.8731 47.8271C92.8731 46.4258 93.4278 45.0815 94.416 44.0879L104.355 34.1484C104.375 34.1293 104.389 34.1058 104.397 34.08C104.405 34.0542 104.406 34.0268 104.401 34.0002C104.396 33.9737 104.385 33.9488 104.368 33.9276C104.351 33.9065 104.329 33.8897 104.305 33.8789C97.8906 31.1328 89.5722 32.5293 84.2909 37.7734C79.2363 42.791 78.9492 50.3262 80.8007 56.9141C81.0638 57.8498 81.0632 58.8401 80.7988 59.7756C80.5344 60.711 80.0167 61.5552 79.3027 62.2148L45.5136 93.6133C44.7071 94.3354 44.0564 95.2145 43.6012 96.1967C43.146 97.1789 42.896 98.2436 42.8663 99.3257C42.8366 100.408 43.0279 101.485 43.4286 102.49C43.8292 103.496 44.4308 104.409 45.1965 105.175C45.9621 105.94 46.8758 106.541 47.8817 106.941C48.8876 107.341 49.9645 107.532 51.0467 107.502C52.1288 107.472 53.1934 107.221 54.1753 106.765C55.1573 106.31 56.036 105.658 56.7577 104.852L88.4277 71.0039C89.0802 70.3017 89.9118 69.7906 90.833 69.5256C91.7542 69.2606 92.7303 69.2518 93.6562 69.5C100.191 71.2461 107.619 70.918 112.615 65.9961C117.984 60.707 119.143 51.3594 116.541 46.0098C116.529 45.9863 116.512 45.966 116.491 45.9504C116.47 45.9349 116.445 45.9246 116.419 45.9204C116.393 45.9162 116.367 45.9182 116.342 45.9263C116.317 45.9344 116.294 45.9482 116.275 45.9668L106.287 55.959Z" stroke="#559CAD" stroke-width="6.25" stroke-miterlimit="10" stroke-linecap="round"/>
<path d="M64.7499 75.4687C61.3359 72.1484 59.7714 70.6035 58.6952 69.5527C58.1567 69.0176 57.8031 68.3245 57.6861 67.5744C57.5691 66.8243 57.6948 66.0564 58.0449 65.3828C58.2294 65.0515 58.4595 64.7478 58.7285 64.4804L61.791 61.4941C62.1078 61.1766 62.4806 60.9204 62.8906 60.7382C63.5377 60.4518 64.2559 60.3661 64.9522 60.4921C65.6486 60.6181 66.2911 60.9502 66.7968 61.4453C67.8613 62.4785 69.8105 64.375 73.3222 67.7968M82.9277 76.8945C90.9257 84.3359 100.627 93.1582 104.412 96.3105C104.695 96.5439 104.926 96.8339 105.09 97.1619C105.255 97.4899 105.349 97.8487 105.366 98.2151C105.383 98.5816 105.324 98.9476 105.191 99.2896C105.058 99.6317 104.855 99.9422 104.596 100.201L98.0761 106.719C97.8108 106.978 97.4954 107.181 97.1493 107.314C96.8032 107.448 96.4335 107.509 96.0628 107.495C95.6921 107.482 95.328 107.392 94.9929 107.233C94.6577 107.074 94.3584 106.849 94.1132 106.57C90.8847 102.824 82.1816 93.4629 74.7245 85.6718" stroke="#559CAD" stroke-width="6.25" stroke-linecap="round" stroke-linejoin="round"/>
<path d="M24.3867 57.793L30.1308 52.1797C30.2185 52.0934 30.3227 52.0257 30.4371 51.9804C30.5515 51.9351 30.6738 51.9132 30.7968 51.916C31.0448 51.9134 31.2839 52.008 31.4628 52.1797C31.6708 52.3855 31.923 52.5411 32.2002 52.6349C32.4773 52.7286 32.7722 52.758 33.0624 52.7207C33.8105 52.6387 34.6093 52.4082 35.1269 51.916C36.2988 50.7832 34.9433 48.5508 35.9746 47.1231C37.1537 45.5601 38.4449 44.0849 39.8378 42.709C41.0097 41.5606 45.666 37.1777 53.4902 34.0274C55.9924 33.016 58.6663 32.4974 61.3652 32.5C65.7773 32.5 69.1777 34.4531 70.4003 35.5606C71.1342 36.2588 71.806 37.0195 72.4081 37.834C71.8201 37.6173 71.2194 37.4366 70.6093 37.293C69.3262 37.0208 68.0102 36.9379 66.7031 37.0469C64.0996 37.2598 60.9589 38.4649 59.2812 39.7813C56.5663 41.9297 55.4003 44.8047 55.2167 48.5137C55.0839 51.2715 55.748 52.8301 62.2675 59.3516C62.4903 59.6003 62.6079 59.9258 62.5956 60.2595C62.5832 60.5932 62.4418 60.9091 62.2011 61.1406L58.6425 64.6563C58.3945 64.8995 58.0618 65.0372 57.7144 65.0405C57.367 65.0437 57.0319 64.9123 56.7792 64.6738C52.4941 60.3887 49.621 58.2109 47.9902 57.2207C46.3593 56.2305 45.0468 55.9512 44.416 55.8828C43.177 55.7601 41.9304 56.0241 40.8476 56.6387C40.6576 56.7431 40.4839 56.8747 40.332 57.0293C40.0784 57.2914 39.8792 57.6012 39.746 57.9407C39.6128 58.2802 39.5481 58.6427 39.5557 59.0073C39.5633 59.372 39.6431 59.7315 39.7904 60.0651C39.9377 60.3987 40.1497 60.6999 40.414 60.9512L40.748 61.2637C40.8347 61.348 40.9036 61.4488 40.9507 61.5601C40.9977 61.6715 41.022 61.7912 41.022 61.9121C41.022 62.033 40.9977 62.1527 40.9507 62.2641C40.9036 62.3755 40.8347 62.4763 40.748 62.5606L35.0097 68.1641C34.9228 68.2521 34.819 68.3217 34.7046 68.3687C34.5901 68.4156 34.4674 68.4391 34.3437 68.4375C34.0958 68.44 33.8567 68.3453 33.6777 68.1738L24.3867 59.1055C24.2185 58.9284 24.1248 58.6935 24.1248 58.4492C24.1248 58.205 24.2185 57.9701 24.3867 57.793Z" stroke="#559CAD" stroke-width="6.25" stroke-linecap="round" stroke-linejoin="round"/>
</svg>
