<svg width="139" height="139" viewBox="0 0 139 139" fill="none" xmlns="http://www.w3.org/2000/svg">
<path fill-rule="evenodd" clip-rule="evenodd" d="M69.5 138C107.332 138 138 107.332 138 69.5C138 31.6685 107.332 1 69.5 1C31.6685 1 1 31.6685 1 69.5C1 107.332 31.6685 138 69.5 138Z" fill="#4F5165" stroke="#559CAD"/>
<path d="M51.25 26.25C47.9348 26.25 44.7554 27.567 42.4112 29.9112C40.067 32.2554 38.75 35.4348 38.75 38.75V101.238C38.75 104.553 40.067 107.732 42.4112 110.076C44.7554 112.421 47.9348 113.738 51.25 113.738H57.7875L59.35 107.488H51.25C49.5924 107.488 48.0027 106.829 46.8306 105.657C45.6585 104.485 45 102.895 45 101.238V38.75C45 37.0924 45.6585 35.5027 46.8306 34.3306C48.0027 33.1585 49.5924 32.5 51.25 32.5H70V48.125C70 50.6092 70.986 52.9919 72.7415 54.7497C74.4969 56.5075 76.8783 57.4967 79.3625 57.5H94.9875V66.5C96.8651 65.2176 98.9967 64.3543 101.237 63.9688V53.8313C101.235 51.3457 100.246 48.9627 98.4875 47.2063L80.2813 28.9938C78.5238 27.2374 76.1409 26.2505 73.6562 26.25H51.25ZM93.6938 51.25H79.375C78.5462 51.25 77.7513 50.9208 77.1653 50.3347C76.5792 49.7487 76.25 48.9538 76.25 48.125V33.7875L93.7 51.2375L93.6938 51.25ZM101.237 70.375C99.6742 70.837 98.2516 71.6837 97.1 72.8375L70.3125 99.625C68.1393 101.798 66.5821 104.509 65.8 107.481L65.7437 107.688L63.8563 115.256C63.697 115.894 63.7054 116.562 63.8805 117.196C64.0556 117.829 64.3916 118.407 64.8557 118.872C65.3199 119.337 65.8964 119.675 66.5295 119.852C67.1626 120.029 67.8306 120.039 68.4688 119.881L76.0375 117.988C79.0888 117.226 81.8757 115.648 84.1 113.425L110.9 86.625C112.435 85.0929 113.416 83.0925 113.687 80.9404C113.957 78.7883 113.503 76.6074 112.395 74.7427C111.287 72.8781 109.589 71.4361 107.569 70.6451C105.549 69.854 103.317 69.7589 101.237 70.375Z" fill="#559CAD"/>
</svg>
