<svg width="139" height="139" viewBox="0 0 139 139" fill="none" xmlns="http://www.w3.org/2000/svg">
<path fill-rule="evenodd" clip-rule="evenodd" d="M69.5 138C107.332 138 138 107.332 138 69.5C138 31.6685 107.332 1 69.5 1C31.6685 1 1 31.6685 1 69.5C1 107.332 31.6685 138 69.5 138Z" fill="#4F5165" stroke="#559CAD"/>
<path d="M104.717 96.1353L106.922 98.352L104.713 96.1353H104.717ZM52.1924 87.152L54.3924 84.9353L52.1882 87.152H52.1924ZM35.0007 43.0186L32.8007 40.8061L35.0049 43.0228L35.0007 43.0186ZM84.7466 83.6686L86.6465 81.7811L82.2341 77.3478L80.3424 79.2353L84.7466 83.6686ZM93.0174 80.9895L100.98 85.3186L103.959 79.827L96.0007 75.502L93.0174 80.9895ZM102.509 93.9186L96.5924 99.8061L100.997 104.235L106.913 98.352L102.509 93.9186ZM92.9841 101.698C86.9424 102.264 71.3174 101.76 54.3924 84.9353L49.9841 89.3645C68.4507 107.727 86.0299 108.627 93.5674 107.923L92.9799 101.698H92.9841ZM54.3924 84.9353C38.2632 68.8936 35.5882 55.4061 35.2549 49.552L29.0132 49.9061C29.4299 57.2728 32.7424 72.2228 49.9841 89.3645L54.3924 84.9353ZM60.1216 59.1853L61.3174 57.9936L56.9174 53.5645L55.7216 54.752L60.1257 59.1811L60.1216 59.1853ZM62.2674 42.8478L57.0174 35.8311L52.0132 39.5811L57.2632 46.5936L62.2674 42.8478ZM39.3466 34.302L32.8049 40.802L37.2132 45.2353L43.7507 38.7353L39.3466 34.302ZM57.9216 56.9686C55.7132 54.752 55.7132 54.752 55.7132 54.7603H55.7049L55.6924 54.777C55.4957 54.9777 55.3185 55.1968 55.1632 55.4311C54.9382 55.7645 54.6924 56.202 54.4841 56.7561C53.9767 58.1866 53.8503 59.7245 54.1174 61.2186C54.6757 64.8228 57.1591 69.5853 63.5174 75.9103L67.9257 71.477C61.9716 65.5603 60.5549 61.9603 60.2924 60.2603C60.1674 59.452 60.2966 59.052 60.3341 58.9603C60.3549 58.902 60.3632 58.8978 60.3341 58.9353C60.2973 58.9931 60.2555 59.0475 60.2091 59.0978L60.1674 59.1395C60.1539 59.1524 60.14 59.1649 60.1257 59.177L57.9174 56.9686H57.9216ZM63.5174 75.9103C69.8799 82.2353 74.6674 84.702 78.2757 85.252C80.1216 85.5353 81.6091 85.3103 82.7382 84.8895C83.3696 84.6558 83.9602 84.3239 84.4882 83.9061C84.5599 83.8462 84.6294 83.7836 84.6966 83.7186L84.7257 83.6936L84.7382 83.6811L84.7424 83.6728C84.7424 83.6728 84.7466 83.6686 82.5424 81.452C80.3341 79.2353 80.3466 79.2311 80.3466 79.2311L80.3549 79.2228L80.3632 79.2145L80.3882 79.1936L80.4299 79.152C80.48 79.107 80.5329 79.0653 80.5882 79.027C80.6299 78.9978 80.6174 79.0103 80.5591 79.0353C80.4549 79.0728 80.0466 79.202 79.2257 79.077C77.5007 78.8103 73.8757 77.3936 67.9257 71.477L63.5174 75.9103ZM57.0174 35.827C52.7674 30.1603 44.4174 29.2603 39.3466 34.302L43.7507 38.7353C45.9674 36.5311 49.9007 36.7603 52.0132 39.5811L57.0132 35.827H57.0174ZM35.2591 49.5561C35.1757 48.1145 35.8382 46.6061 37.2132 45.2395L32.8007 40.8061C30.5632 43.0311 28.8007 46.1811 29.0132 49.9061L35.2591 49.5561ZM96.5924 99.8061C95.4507 100.948 94.2174 101.589 92.9882 101.702L93.5674 107.923C96.6299 107.635 99.1341 106.094 101.001 104.239L96.5924 99.8061ZM61.3174 57.9936C65.4216 53.9145 65.7257 47.4686 62.2716 42.852L57.2674 46.5978C58.9466 48.8436 58.6966 51.7895 56.9132 53.5686L61.3174 57.9936ZM100.984 85.3228C104.388 87.1728 104.917 91.5311 102.513 93.9228L106.922 98.352C112.505 92.7978 110.784 83.5353 103.963 79.8311L100.984 85.3228ZM86.6465 81.7853C88.2466 80.1936 90.8216 79.802 93.0216 80.9936L96.0049 75.5061C91.4882 73.0478 85.8882 73.727 82.2382 77.352L86.6465 81.7853Z" fill="#559CAD"/>
</svg>
