<svg width="139" height="139" viewBox="0 0 139 139" fill="none" xmlns="http://www.w3.org/2000/svg">
<path fill-rule="evenodd" clip-rule="evenodd" d="M69.5 138C107.332 138 138 107.332 138 69.5C138 31.6685 107.332 1 69.5 1C31.6685 1 1 31.6685 1 69.5C1 107.332 31.6685 138 69.5 138Z" fill="#4F5165" stroke="#559CAD"/>
<path fill-rule="evenodd" clip-rule="evenodd" d="M39.9999 38.26C39.9991 38.5713 39.911 38.8761 39.7458 39.1399C39.5806 39.4037 39.3449 39.6159 39.0652 39.7526C38.7856 39.8893 38.4733 39.945 38.1636 39.9133C37.854 39.8816 37.5594 39.7639 37.3133 39.5734L26.6933 31.3134C26.4938 31.1575 26.3324 30.9582 26.2214 30.7306C26.1104 30.5031 26.0527 30.2532 26.0527 30C26.0527 29.7469 26.1104 29.497 26.2214 29.2694C26.3324 29.0419 26.4938 28.8426 26.6933 28.6867L37.3133 20.42C37.5603 20.2289 37.8561 20.111 38.167 20.0798C38.4778 20.0486 38.7911 20.1054 39.0712 20.2437C39.3513 20.382 39.5869 20.5963 39.7511 20.862C39.9153 21.1278 40.0016 21.4343 39.9999 21.7467V26.68H79.9999V21.7334C79.9999 21.421 80.0876 21.1148 80.2531 20.8499C80.4187 20.5849 80.6553 20.3718 80.9361 20.2349C81.2169 20.098 81.5306 20.0427 81.8413 20.0755C82.1519 20.1082 82.4472 20.2276 82.6933 20.42L93.3066 28.68C93.5061 28.8359 93.6675 29.0352 93.7785 29.2628C93.8895 29.4903 93.9472 29.7402 93.9472 29.9934C93.9472 30.2466 93.8895 30.4964 93.7785 30.724C93.6675 30.9515 93.5061 31.1508 93.3066 31.3067L82.6933 39.5734C82.4467 39.7662 82.1509 39.8857 81.8396 39.9181C81.5283 39.9506 81.2142 39.8948 80.9331 39.7571C80.6521 39.6193 80.4155 39.4052 80.2505 39.1393C80.0854 38.8734 79.9986 38.5664 79.9999 38.2534V33.3334H39.9999V38.26ZM83.3333 53.3334H36.6666C35.7826 53.3334 34.9347 53.6846 34.3096 54.3097C33.6845 54.9348 33.3333 55.7827 33.3333 56.6667V103.333C33.3333 104.217 33.6845 105.065 34.3096 105.69C34.9347 106.316 35.7826 106.667 36.6666 106.667H83.3333C84.2173 106.667 85.0652 106.316 85.6903 105.69C86.3154 105.065 86.6666 104.217 86.6666 103.333V56.6667C86.6666 55.7827 86.3154 54.9348 85.6903 54.3097C85.0652 53.6846 84.2173 53.3334 83.3333 53.3334ZM36.6666 46.6667C34.0144 46.6667 31.4709 47.7203 29.5955 49.5956C27.7202 51.471 26.6666 54.0145 26.6666 56.6667V103.333C26.6666 105.986 27.7202 108.529 29.5955 110.404C31.4709 112.28 34.0144 113.333 36.6666 113.333H83.3333C85.9854 113.333 88.529 112.28 90.4044 110.404C92.2797 108.529 93.3333 105.986 93.3333 103.333V56.6667C93.3333 54.0145 92.2797 51.471 90.4044 49.5956C88.529 47.7203 85.9854 46.6667 83.3333 46.6667H36.6666ZM118.26 60H113.333V100H118.26C118.571 100.001 118.876 100.089 119.14 100.254C119.404 100.419 119.616 100.655 119.753 100.935C119.889 101.214 119.945 101.527 119.913 101.836C119.882 102.146 119.764 102.441 119.573 102.687L111.313 113.307C111.157 113.506 110.958 113.668 110.731 113.779C110.503 113.89 110.253 113.947 110 113.947C109.747 113.947 109.497 113.89 109.269 113.779C109.042 113.668 108.842 113.506 108.687 113.307L100.42 102.687C100.229 102.44 100.111 102.145 100.08 101.835C100.048 101.524 100.105 101.212 100.242 100.932C100.38 100.652 100.593 100.416 100.858 100.252C101.122 100.087 101.428 99.9997 101.74 100H106.667V60H101.74C101.429 59.9992 101.124 59.9111 100.86 59.7459C100.596 59.5807 100.384 59.345 100.247 59.0653C100.111 58.7857 100.055 58.4734 100.087 58.1637C100.118 57.8541 100.236 57.5595 100.427 57.3134L108.687 46.6934C108.842 46.4939 109.042 46.3325 109.269 46.2215C109.497 46.1105 109.747 46.0528 110 46.0528C110.253 46.0528 110.503 46.1105 110.731 46.2215C110.958 46.3325 111.157 46.4939 111.313 46.6934L119.58 57.3134C119.771 57.56 119.889 57.8552 119.92 58.1654C119.951 58.4756 119.895 58.7885 119.758 59.0683C119.62 59.3482 119.407 59.5839 119.142 59.7486C118.877 59.9133 118.572 60.0004 118.26 60Z" fill="#559CAD"/>
</svg>
