<svg width="50" height="50" viewBox="0 0 50 50" fill="none" xmlns="http://www.w3.org/2000/svg">
<path d="M41.9047 4.28571H8.57141V8.45237L20.6756 17.5357C17.0021 18.747 13.9599 21.3673 12.2176 24.8207C10.4753 28.2741 10.1754 32.278 11.3839 35.9524C11.9818 37.7726 12.9327 39.457 14.1822 40.9094C15.4317 42.3618 16.9553 43.5535 18.6658 44.4165C20.3763 45.2795 22.2402 45.7968 24.1508 45.9388C26.0614 46.0808 27.9813 45.8447 29.8006 45.244C32.7182 44.2851 35.2587 42.4294 37.0597 39.9417C38.8607 37.4539 39.8303 34.4611 39.8303 31.3899C39.8303 28.3187 38.8607 25.3258 37.0597 22.8381C35.2587 20.3503 32.7182 18.4947 29.8006 17.5357L41.9047 8.45237V4.28571ZM31.3631 40.744L25.2381 37.1607L19.1131 40.744L20.7381 33.8065L15.3422 29.1399L22.4464 28.5357L25.2381 21.994L28.0297 28.5357L35.1339 29.1399L29.7381 33.8065L31.3631 40.744Z" fill="#559CAD"/>
</svg>
