<svg width="102" height="45" viewBox="0 0 102 45" fill="none" xmlns="http://www.w3.org/2000/svg">
<path d="M9.12615 41.111L5.63323 32.196L4.66296 32.0832V30.8418H8.98435V32.0832L8.00662 32.2243L10.1412 38.2826L10.3054 38.8471H10.3502L10.5069 38.2968L12.6415 32.2243L11.4995 32.0832V30.8418H15.6194V32.0832L14.6342 32.196L11.3577 41.111H9.12615ZM16.2911 41.111V39.8768L17.448 39.6651V32.2949L16.2911 32.0832V30.8418H20.7842V32.0832L19.6273 32.2949V39.6651L20.7842 39.8768V41.111H16.2911ZM24.501 38.5932L23.374 37.3729L28.6955 32.189L28.7104 32.1679L27.6357 32.0832V30.8418H32.1065V32.0832L31.0838 32.2737L24.501 38.5932ZM21.6201 41.111V39.8768L22.7769 39.6651V32.2949L21.6201 32.0832V30.8418H26.0609V32.0832L24.9563 32.2949V39.6651L26.0609 39.8768V41.111H21.6201ZM27.8745 41.111V39.8768L28.8895 39.7921H28.897L26.1355 36.1951L27.576 34.8337L31.4271 39.7004L32.4945 39.8768V41.111H27.8745ZM33.1588 41.111V39.8768L34.3155 39.6651V32.2949L33.1588 32.0832V30.8418H34.3155H36.5248L41.2568 37.9654L41.3014 37.9582V32.2949L39.9131 32.0832V30.8418H43.2494H44.4138V32.0832L43.2494 32.2949V41.111H41.1448L36.3084 34.0579L36.2635 34.0651V39.6651L37.6591 39.8768V41.111H33.1588ZM44.3018 41.111V39.8768L45.0781 39.771L48.5335 30.8418H50.7651L54.1984 39.771L54.9744 39.8768V41.111H51.2728V39.8768L52.0264 39.7499L51.5488 38.339H47.7274L47.2498 39.7499L48.0038 39.8768V41.111H44.3018ZM48.2424 36.8226H51.0338L49.7651 33.3035L49.6604 32.9929H49.6158L49.5038 33.3246L48.2424 36.8226ZM57.0794 41.111V39.8768L58.2437 39.6651V32.4287H56.2658L56.1464 33.656H54.4968V30.8418H64.1921V33.656H62.5351L62.4157 32.4287H60.4231V39.6651L61.5947 39.8768V41.111H57.0794ZM64.9534 41.111V39.8768L66.1101 39.6651V32.2949L64.9534 32.0832V30.8418H73.3871V33.6137H71.7154L71.6184 32.4287H68.2894V35.0101H71.969V36.5971H68.2894V39.531H71.7974L71.8944 38.304H73.5514V41.111H64.9534ZM74.7157 41.111V39.8768L75.8724 39.6651V32.2949L74.7157 32.0832V30.8418H75.8724H78.0817L82.8137 37.9654L82.8584 37.9582V32.2949L81.47 32.0832V30.8418H84.8063H85.9707V32.0832L84.8063 32.2949V41.111H82.7017L77.8654 34.0579L77.8204 34.0651V39.6651L79.216 39.8768V41.111H74.7157ZM89.1873 41.111V39.8768L90.3517 39.6651V32.4287H88.374L88.2544 33.656H86.605V30.8418H96.3V33.656H94.6433L94.5237 32.4287H92.531V39.6651L93.7027 39.8768V41.111H89.1873Z" fill="#FAF9F9"/>
<path d="M16.624 12.2252H28.9864L28.8783 14.9461L16.624 19.0607V12.2252ZM50.8102 10.7189L2.04004 26.7677L7.18083 28.9224L51.0103 14.4963L94.8315 28.9224L99.96 26.7677L51.1979 10.7189L51 10.6558L50.8102 10.7189Z" fill="#FAF9F9"/>
</svg>
