<svg width="75" height="34" viewBox="0 0 75 34" fill="none" xmlns="http://www.w3.org/2000/svg">
<path d="M6.71047 30.4527L4.14214 23.849L3.42871 23.7654V22.8459H6.6062V23.7654L5.88728 23.87L7.45682 28.3576L7.57755 28.7757H7.61047L7.72571 28.3681L9.29527 23.87L8.45561 23.7654V22.8459H11.4849V23.7654L10.7605 23.849L8.35135 30.4527H6.71047ZM11.9788 30.4527V29.5385L12.8295 29.3817V23.9222L11.9788 23.7654V22.8459H15.2825V23.7654L14.4319 23.9222V29.3817L15.2825 29.5385V30.4527H11.9788ZM18.0155 28.5877L17.1868 27.6837L21.0997 23.8438L21.1107 23.8282L20.3204 23.7654V22.8459H23.6077V23.7654L22.8558 23.9066L18.0155 28.5877ZM15.8972 30.4527V29.5385L16.7478 29.3817V23.9222L15.8972 23.7654V22.8459H19.1625V23.7654L18.3503 23.9222V29.3817L19.1625 29.5385V30.4527H15.8972ZM20.496 30.4527V29.5385L21.2424 29.4757H21.2479L19.2174 26.8113L20.2765 25.8029L23.1083 29.4078L23.8931 29.5385V30.4527H20.496ZM24.3815 30.4527V29.5385L25.232 29.3817V23.9222L24.3815 23.7654V22.8459H25.232H26.8565L30.3359 28.1226L30.3688 28.1173V23.9222L29.348 23.7654V22.8459H31.8011H32.6572V23.7654L31.8011 23.9222V30.4527H30.2536L26.6974 25.2282L26.6644 25.2335V29.3817L27.6906 29.5385V30.4527H24.3815ZM32.5749 30.4527V29.5385L33.1457 29.4601L35.6864 22.8459H37.3273L39.8518 29.4601L40.4224 29.5385V30.4527H37.7006V29.5385L38.2548 29.4444L37.9036 28.3994H35.0938L34.7425 29.4444L35.2969 29.5385V30.4527H32.5749ZM35.4724 27.2761H37.5249L36.592 24.6693L36.5151 24.4393H36.4822L36.3999 24.685L35.4724 27.2761ZM41.9702 30.4527V29.5385L42.8263 29.3817V24.0214H41.3719L41.2842 24.9305H40.0712V22.8459H47.2001V24.9305H45.9817L45.894 24.0214H44.4288V29.3817L45.2903 29.5385V30.4527H41.9702ZM47.7599 30.4527V29.5385L48.6104 29.3817V23.9222L47.7599 23.7654V22.8459H53.9611V24.8992H52.732L52.6606 24.0214H50.2129V25.9335H52.9185V27.1091H50.2129V29.2823H52.7923L52.8636 28.3735H54.082V30.4527H47.7599ZM54.9381 30.4527V29.5385L55.7886 29.3817V23.9222L54.9381 23.7654V22.8459H55.7886H57.4131L60.8925 28.1226L60.9253 28.1173V23.9222L59.9045 23.7654V22.8459H62.3577H63.2138V23.7654L62.3577 23.9222V30.4527H60.8101L57.254 25.2282L57.2209 25.2335V29.3817L58.2472 29.5385V30.4527H54.9381ZM65.579 30.4527V29.5385L66.4351 29.3817V24.0214H64.9809L64.893 24.9305H63.6802V22.8459H70.8089V24.9305H69.5907L69.5028 24.0214H68.0376V29.3817L68.8991 29.5385V30.4527H65.579Z" fill="#FAF9F9"/>
<path d="M12.2235 9.05554H21.3135L21.234 11.0711L12.2235 14.1189V9.05554ZM37.3604 7.9398L1.5 19.8278L5.27999 21.4239L37.5076 10.7379L69.729 21.4239L73.5 19.8278L37.6455 7.9398L37.5 7.89301L37.3604 7.9398Z" fill="#FAF9F9"/>
</svg>
